Patient4_TMGait_0pt7_01_left_46_GRF.mot
version=1
nRows=39
nColumns=19
inDegrees=no
endheader
time	F1x	F1y	F1z	M1x	M1y	M1z	F2x	F2y	F2z	M2x	M2y	M2z	EC1x	EC1y	EC1z	EC2x	EC2y	EC2z
53.35	2.2448	-2.0716	12.5951	-1.029	-7.9834	-22.4612	-66.6496	752.3774	-68.9992	262.758	100.4651	877.2469	-0.0592	0.0182	-0.0073	-0.0462	0.0165	0.9585
53.3619	1.3212	-0.28032	8.5682	-1.113	-5.4806	-13.803	-54.2078	750.8751	-73.1822	262.1929	101.9491	869.475	-0.0592	0.0182	-0.0073	-0.0462	0.0165	0.9585
53.3739	0.59944	1.2139	5.1643	-1.1635	-3.3619	-6.5307	-42.7388	748.934	-76.587	261.5618	102.5011	860.5748	-0.0592	0.0182	-0.0073	-0.0462	0.0165	0.9585
53.3858	0.068224	2.3699	2.5517	-1.1925	-1.7344	-0.97225	-32.9406	747.0215	-78.9793	261.0146	102.0666	851.3653	-0.0592	0.0182	-0.0073	-0.0462	0.0165	0.9585
53.3977	-0.26478	3.2089	0.74297	-1.2121	-0.60585	2.9091	-25.1261	745.743	-80.3612	260.7376	100.797	842.7817	-0.0592	0.0182	-0.0073	-0.0462	0.0165	0.9585
53.4096	-0.47608	3.7867	-0.38891	-1.232	0.092505	5.3884	-19.2383	745.6106	-80.8982	260.8841	98.9465	835.5583	-0.0592	0.0182	-0.0073	-0.0462	0.0165	0.9585
53.4216	-0.59125	4.129	-0.98919	-1.2468	0.44784	6.7495	-15.0842	746.9023	-80.845	261.5233	96.8221	830.13	-0.0592	0.0182	-0.0073	-0.0462	0.0165	0.9585
53.4335	-0.66464	4.2635	-1.2179	-1.2467	0.55214	7.2926	-12.3293	749.4537	-80.3991	262.5817	94.6215	826.3695	-0.0592	0.0182	-0.0073	-0.0462	0.0165	0.9585
53.4454	-0.73291	4.1446	-1.2089	-1.1998	0.48507	7.1825	-10.6108	752.7685	-79.7874	263.876	92.5318	823.7518	-0.0592	0.0182	-0.0073	-0.0462	0.0165	0.9585
53.4574	-0.80921	3.7208	-1.0635	-1.0684	0.31056	6.516	-9.4997	756.1742	-79.0961	265.1725	90.5654	821.5	-0.0592	0.0182	-0.0073	-0.0462	0.0165	0.9585
53.4693	-0.90499	2.9011	-0.8637	-0.80709	0.087014	5.2905	-8.6268	758.9423	-78.4461	266.2236	88.7598	818.7742	-0.0592	0.0182	-0.0073	-0.0462	0.0165	0.9585
53.4812	-1.0047	1.5596	-0.65103	-0.36438	-0.15178	3.4184	-7.6488	760.4081	-77.8376	266.8111	87.0236	814.7798	-0.0592	0.0182	-0.0073	-0.0462	0.0165	0.9585
53.4931	-1.0876	-0.39507	-0.47747	0.29922	-0.34849	0.8292	-6.3083	760.0585	-77.3013	266.7704	85.3066	808.9012	-0.0592	0.0182	-0.0073	-0.0462	0.0165	0.9585
53.5051	-1.0828	-3.0074	-0.36488	1.202	-0.45403	-2.5286	-4.4595	757.5859	-76.7494	266.0128	83.469	800.7449	-0.0592	0.0182	-0.0073	-0.0462	0.0165	0.9585
53.517	-0.94387	-6.1722	-0.35074	2.3075	-0.40118	-6.5112	-2.0045	752.9552	-76.1399	264.5326	81.429	790.2295	-0.0592	0.0182	-0.0073	-0.0462	0.0165	0.9585
53.5289	-0.52695	-9.5822	-0.44819	3.5028	-0.11847	-10.7555	1.007	746.2931	-75.3798	262.3758	79.0901	777.4917	-0.0592	0.0182	-0.0073	-0.0462	0.0165	0.9585
53.5409	0.26798	-12.5634	-0.68582	4.5421	0.47705	-14.4387	4.4686	737.7792	-74.435	259.5949	76.4323	762.7654	-0.0592	0.0182	-0.0073	-0.0462	0.0165	0.9585
53.5528	1.6166	-14.0139	-1.0702	5.018	1.4632	-16.2662	8.1862	727.5936	-73.2852	256.2285	73.4768	746.3557	-0.0592	0.0182	-0.0073	-0.0462	0.0165	0.9585
53.5647	3.6041	-12.2371	-1.6011	4.3126	2.8754	-14.1792	11.9501	715.8243	-71.9527	252.2778	70.2967	728.4879	-0.0592	0.0182	-0.0073	-0.0462	0.0165	0.9585
53.5766	6.3103	-4.9617	-2.2384	1.6017	4.6837	-5.464	15.5532	702.604	-70.4969	247.7495	67.0091	709.4629	-0.0592	0.0182	-0.0073	-0.0462	0.0165	0.9585
53.5886	9.5867	10.6379	-2.8916	-4.1276	6.7261	13.298	18.8589	688.0452	-68.979	242.6502	63.7255	689.5322	-0.0592	0.0182	-0.0073	-0.0462	0.0165	0.9585
53.6005	13.127	37.6011	-3.3961	-13.961	8.6767	45.745	21.7418	672.2327	-67.448	236.9857	60.5552	668.9258	-0.0592	0.0182	-0.0073	-0.0462	0.0165	0.9585
53.6124	16.1745	78.6247	-3.4957	-28.8478	9.9411	95.1702	24.1551	654.9755	-65.8798	230.6864	57.5252	647.5513	-0.0592	0.0182	-0.0073	-0.0462	0.0165	0.9585
53.6244	17.5607	135.0152	-2.8116	-49.2264	9.6183	163.1763	26.051	635.6154	-64.1702	223.5409	54.5806	624.8443	-0.0592	0.0182	-0.0073	-0.0462	0.0165	0.9585
53.6363	15.5239	205.4586	-0.85297	-74.576	6.4845	248.2641	27.417	613.0225	-62.0823	215.199	51.5282	599.7404	-0.0592	0.0182	-0.0073	-0.0462	0.0165	0.9585
53.6482	8.7829	285.3517	2.9238	-103.1834	-0.5743	344.9386	28.2031	585.8624	-59.3447	205.2531	48.1468	570.9555	-0.0592	0.0182	-0.0073	-0.0462	0.0165	0.9585
53.6601	-1.918	367.1725	9.1115	-132.282	-11.9643	444.0434	28.4111	552.9966	-55.6636	193.3712	44.1771	537.3307	-0.0592	0.0182	-0.0073	-0.0462	0.0165	0.9585
53.6721	-14.2064	442.037	17.6681	-158.7127	-26.7061	534.4714	28.0824	513.8632	-50.9677	179.4102	39.5441	498.2238	-0.0592	0.0182	-0.0073	-0.0462	0.0165	0.9585
53.684	-25.5987	504.2113	27.4696	-180.4966	-42.5256	608.8447	27.3302	468.7484	-45.3998	163.4948	34.3394	453.7723	-0.0592	0.0182	-0.0073	-0.0462	0.0165	0.9585
53.6959	-34.7981	553.0513	37.0273	-197.4919	-57.1441	666.1621	26.2511	418.7012	-39.3713	145.9786	28.8961	404.8592	-0.0592	0.0182	-0.0073	-0.0462	0.0165	0.9585
53.7079	-41.1443	591.1795	45.1949	-210.7142	-68.9973	709.5612	24.8984	365.2643	-33.3454	127.3618	23.6009	352.8853	-0.0592	0.0182	-0.0073	-0.0462	0.0165	0.9585
53.7198	-44.6508	621.6437	51.304	-221.3114	-77.3071	742.9085	23.2867	310.2131	-27.6686	108.2241	18.7465	299.5025	-0.0592	0.0182	-0.0073	-0.0462	0.0165	0.9585
53.7317	-45.4622	646.5474	55.1009	-230.0584	-81.8745	768.8441	21.342	255.5153	-22.4699	89.2201	14.4633	246.5751	-0.0592	0.0182	-0.0073	-0.0462	0.0165	0.9585
53.7436	-43.9249	667.04	56.9803	-237.3358	-83.2968	788.984	19.0093	203.237	-17.7516	71.0504	10.7707	196.0692	-0.0592	0.0182	-0.0073	-0.0462	0.0165	0.9585
53.7556	-40.4649	683.9032	57.4886	-243.3711	-82.4072	804.394	16.2802	155.3863	-13.5298	54.4009	7.6791	149.9066	-0.0592	0.0182	-0.0073	-0.0462	0.0165	0.9585
53.7675	-35.7292	697.9417	57.4069	-248.3644	-80.3363	816.2404	13.3237	113.5745	-9.8518	39.8287	5.1713	109.6073	-0.0592	0.0182	-0.0073	-0.0462	0.0165	0.9585
53.7794	-30.3034	709.6703	57.3026	-252.44	-77.9777	825.2724	10.3575	78.7356	-6.7891	27.6628	3.2337	76.058	-0.0592	0.0182	-0.0073	-0.0462	0.0165	0.9585
53.7914	-24.9351	719.4341	57.7061	-255.67	-76.1846	832.0205	7.5937	51.053	-4.3486	17.9786	1.8063	49.4124	-0.0592	0.0182	-0.0073	-0.0462	0.0165	0.9585
53.8033	-20.0644	727.5155	58.7397	-258.1585	-75.2625	836.8204	5.1302	30.1555	-2.4986	10.6562	0.83793	29.3158	-0.0592	0.0182	-0.0073	-0.0462	0.0165	0.9585
